<svg width="24" height="24" viewBox="0 0 24 24" fill="none" xmlns="http://www.w3.org/2000/svg">
<path fill-rule="evenodd" clip-rule="evenodd" d="M2 4.14286C2 3.57454 2.22576 3.02949 2.62763 2.62763C3.02949 2.22576 3.57454 2 4.14286 2H5.57143C6.13975 2 6.68479 2.22576 7.08666 2.62763C7.48852 3.02949 7.71429 3.57454 7.71429 4.14286H13.62C13.7772 3.87051 14.0199 3.65766 14.3105 3.53731C14.601 3.41697 14.9232 3.39586 15.2269 3.47725C15.5307 3.55864 15.7991 3.73799 15.9905 3.98748C16.182 4.23698 16.2858 4.54267 16.2858 4.85714C16.2858 5.17162 16.182 5.47731 15.9905 5.7268C15.7991 5.97629 15.5307 6.15564 15.2269 6.23704C14.9232 6.31843 14.601 6.29732 14.3105 6.17697C14.0199 6.05663 13.7772 5.84377 13.62 5.57143H10.7486C11.0057 5.82857 11.2343 6.11571 11.44 6.43571C12.3514 7.85286 12.7143 9.79857 12.7143 12C12.7143 14.8471 13.0814 16.4171 13.7329 17.2857C14.2414 17.9657 15.0114 18.3157 16.2857 18.4057C16.2917 17.8414 16.5202 17.3022 16.9214 16.9052C17.3226 16.5083 17.8642 16.2857 18.4286 16.2857H19.8571C20.4255 16.2857 20.9705 16.5115 21.3724 16.9133C21.7742 17.3152 22 17.8603 22 18.4286V19.8571C22 20.4255 21.7742 20.9705 21.3724 21.3724C20.9705 21.7742 20.4255 22 19.8571 22H18.4286C17.8603 22 17.3152 21.7742 16.9133 21.3724C16.5115 20.9705 16.2857 20.4255 16.2857 19.8571H10.38C10.2228 20.1295 9.98005 20.3423 9.68951 20.4627C9.39897 20.583 9.07684 20.6041 8.77308 20.5228C8.46932 20.4414 8.2009 20.262 8.00946 20.0125C7.81802 19.763 7.71425 19.4573 7.71425 19.1429C7.71425 18.8284 7.81802 18.5227 8.00946 18.2732C8.2009 18.0237 8.46932 17.8444 8.77308 17.763C9.07684 17.6816 9.39897 17.7027 9.68951 17.823C9.98005 17.9434 10.2228 18.1562 10.38 18.4286H12.8243C12.7414 18.337 12.6628 18.2416 12.5886 18.1429C11.6329 16.8671 11.2857 14.8671 11.2857 12C11.2857 9.91429 10.9343 8.29 10.2386 7.20714C9.68143 6.34286 8.87857 5.77857 7.71429 5.61857C7.70196 6.17868 7.47077 6.71169 7.07023 7.10342C6.6697 7.49514 6.13168 7.71442 5.57143 7.71429H4.14286C3.57454 7.71429 3.02949 7.48852 2.62763 7.08666C2.22576 6.68479 2 6.13975 2 5.57143V4.14286ZM4.14286 3.42857C3.95342 3.42857 3.77174 3.50383 3.63778 3.63778C3.50383 3.77174 3.42857 3.95342 3.42857 4.14286V5.57143C3.42857 5.76087 3.50383 5.94255 3.63778 6.0765C3.77174 6.21046 3.95342 6.28571 4.14286 6.28571H5.57143C5.76087 6.28571 5.94255 6.21046 6.0765 6.0765C6.21046 5.94255 6.28571 5.76087 6.28571 5.57143V4.14286C6.28571 3.95342 6.21046 3.77174 6.0765 3.63778C5.94255 3.50383 5.76087 3.42857 5.57143 3.42857H4.14286ZM18.4286 17.7143C18.2391 17.7143 18.0574 17.7895 17.9235 17.9235C17.7895 18.0574 17.7143 18.2391 17.7143 18.4286V19.8571C17.7143 20.0466 17.7895 20.2283 17.9235 20.3622C18.0574 20.4962 18.2391 20.5714 18.4286 20.5714H19.8571C20.0466 20.5714 20.2283 20.4962 20.3622 20.3622C20.4962 20.2283 20.5714 20.0466 20.5714 19.8571V18.4286C20.5714 18.2391 20.4962 18.0574 20.3622 17.9235C20.2283 17.7895 20.0466 17.7143 19.8571 17.7143H18.4286Z" fill="black"/>
</svg>
