<svg width="24" height="24" viewBox="0 0 24 24" fill="none" xmlns="http://www.w3.org/2000/svg">
<path d="M21.7246 2.2745C21.9003 2.45049 21.9991 2.68905 21.9991 2.93778C21.9991 3.18651 21.9003 3.42507 21.7246 3.60106L19.9162 5.41068C20.5786 6.38295 20.881 7.55592 20.7711 8.72727C20.6612 9.89861 20.146 10.9949 19.3143 11.827L18.9388 12.2024L18.9351 12.2062L18.5484 12.5929C18.302 12.839 17.968 12.9772 17.6198 12.9772C17.2716 12.9772 16.9376 12.839 16.6912 12.5929L11.4064 7.30791C11.2844 7.18589 11.1876 7.04103 11.1215 6.88159C11.0555 6.72215 11.0215 6.55127 11.0215 6.3787C11.0215 6.20612 11.0555 6.03524 11.1215 5.8758C11.1876 5.71637 11.2844 5.5715 11.4064 5.44948L12.171 4.68608C13.0036 3.8547 14.1 3.33972 15.2714 3.22984C16.4428 3.11996 17.6158 3.42207 18.5884 4.08412L20.398 2.2745C20.574 2.09873 20.8126 2 21.0613 2C21.31 2 21.5486 2.09873 21.7246 2.2745V2.2745Z" fill="black"/>
<path d="M10.4614 10.0968C10.6371 10.2728 10.7359 10.5113 10.7359 10.76C10.7359 11.0088 10.6371 11.2473 10.4614 11.4233L8.87205 13.0152L10.987 15.1302L12.5763 13.5383C12.6629 13.4486 12.7664 13.3771 12.8809 13.3278C12.9954 13.2786 13.1185 13.2526 13.2431 13.2515C13.3678 13.2503 13.4914 13.274 13.6067 13.3212C13.7221 13.3683 13.8269 13.438 13.9151 13.526C14.0033 13.6141 14.073 13.7189 14.1203 13.8342C14.1675 13.9496 14.1913 14.0731 14.1903 14.1978C14.1893 14.3224 14.1634 14.4456 14.1143 14.5601C14.0652 14.6746 13.9937 14.7782 13.9041 14.8649L12.3073 16.463C12.6 16.8209 12.7493 17.2749 12.7261 17.7367C12.703 18.1985 12.5091 18.6353 12.1821 18.9622L11.8067 19.3376C10.9744 20.1695 9.87781 20.6847 8.70622 20.7943C7.53463 20.904 6.3615 20.6012 5.38928 19.9383L3.57844 21.748C3.40051 21.9138 3.16518 22.004 2.92203 21.9997C2.67887 21.9954 2.44687 21.8969 2.2749 21.725C2.10294 21.553 2.00444 21.321 2.00015 21.0778C1.99586 20.8347 2.08611 20.5993 2.25191 20.4214L4.06024 18.6118C3.39783 17.6395 3.09549 16.4665 3.20538 15.2952C3.31527 14.1238 3.83049 13.0276 4.66219 12.1955L5.03762 11.82C5.36453 11.493 5.80127 11.2991 6.26308 11.276C6.72489 11.2529 7.17882 11.4022 7.53676 11.6949L9.13485 10.0968C9.31084 9.92099 9.54939 9.82227 9.79812 9.82227C10.0468 9.82227 10.2854 9.92099 10.4614 10.0968Z" fill="black"/>
</svg>
