<svg width="24" height="24" viewBox="0 0 24 24" fill="none" xmlns="http://www.w3.org/2000/svg">
<path fill-rule="evenodd" clip-rule="evenodd" d="M15.5076 21.1587C13.8067 22.0198 11.8661 22.2279 10.0309 21.746C8.19584 21.2641 6.58534 20.1234 5.48607 18.527C4.38679 16.9306 3.87006 14.982 4.02783 13.028C4.18559 11.074 5.00763 9.24132 6.34763 7.85618L12.0026 2L17.6567 7.85618C18.4217 8.64634 19.0235 9.58932 19.4256 10.6278C20.0085 12.1338 20.1516 13.7838 19.8372 15.3733C19.5227 16.9627 18.7645 18.4215 17.6567 19.5685C17.0305 20.2185 16.3042 20.7559 15.5076 21.1587V21.1587ZM7.60479 9.15735L12.0026 4.60234L16.4005 9.15735C17.5322 10.3266 18.1841 11.9035 18.22 13.5587H5.78524C5.82106 11.9034 6.47296 10.3265 7.60479 9.15735V9.15735Z" fill="black"/>
</svg>
