<svg width="25" height="25" viewBox="0 0 25 25" fill="none" xmlns="http://www.w3.org/2000/svg">
<path fill-rule="evenodd" clip-rule="evenodd" d="M4.57975 12.6861C4.57975 17.3924 7.92571 20.5989 11.6841 21.2622C11.7863 21.2803 11.884 21.3187 11.9717 21.3753C12.0594 21.4319 12.1353 21.5055 12.195 21.592C12.2548 21.6785 12.2972 21.7762 12.32 21.8794C12.3428 21.9827 12.3453 22.0895 12.3276 22.1937C12.3099 22.298 12.2722 22.3977 12.2167 22.4871C12.1612 22.5765 12.089 22.6539 12.0042 22.7148C11.9194 22.7757 11.8236 22.8191 11.7224 22.8423C11.6211 22.8655 11.5164 22.8681 11.4142 22.85C7.00091 22.0708 3 18.2767 3 12.6861C3 10.3098 4.05973 8.44218 5.29685 7.02288C6.18375 6.00557 7.198 5.17842 8.01364 4.54607H5.53335C5.33231 4.54607 5.1395 4.46463 4.99734 4.31966C4.85518 4.17468 4.77532 3.97806 4.77532 3.77304C4.77532 3.56801 4.85518 3.37139 4.99734 3.22642C5.1395 3.08144 5.33231 3 5.53335 3H10.0816C10.2826 3 10.4754 3.08144 10.6176 3.22642C10.7597 3.37139 10.8396 3.56801 10.8396 3.77304V8.41125C10.8396 8.61628 10.7597 8.8129 10.6176 8.95787C10.4754 9.10285 10.2826 9.18429 10.0816 9.18429C9.88052 9.18429 9.68771 9.10285 9.54555 8.95787C9.40339 8.8129 9.32353 8.61628 9.32353 8.41125V5.5572L9.32201 5.5603C8.45482 6.22511 7.3966 7.03989 6.47938 8.09276C5.39539 9.33581 4.57975 10.8386 4.57975 12.6846V12.6861ZM21.4203 13.3139C21.4203 8.65708 18.1455 5.47062 14.4357 4.75943C14.3323 4.74154 14.2335 4.70283 14.1449 4.64556C14.0563 4.58829 13.9798 4.5136 13.9198 4.42586C13.8599 4.33811 13.8176 4.23907 13.7956 4.13451C13.7736 4.02994 13.7722 3.92195 13.7915 3.81683C13.8108 3.71171 13.8505 3.61157 13.9082 3.52225C13.9659 3.43293 14.0404 3.35621 14.1275 3.29659C14.2145 3.23696 14.3124 3.19561 14.4153 3.17495C14.5182 3.15429 14.6241 3.15473 14.7268 3.17625C19.084 4.01113 23 7.78355 23 13.3139C23 15.6902 21.9403 17.5563 20.7032 18.9771C19.8163 19.9944 18.802 20.8216 17.9864 21.4539H20.4666C20.6677 21.4539 20.8605 21.5354 21.0027 21.6803C21.1448 21.8253 21.2247 22.0219 21.2247 22.227C21.2247 22.432 21.1448 22.6286 21.0027 22.7736C20.8605 22.9186 20.6677 23 20.4666 23H15.9184C15.7174 23 15.5246 22.9186 15.3824 22.7736C15.2403 22.6286 15.1604 22.432 15.1604 22.227V17.5887C15.1604 17.3837 15.2403 17.1871 15.3824 17.0421C15.5246 16.8972 15.7174 16.8157 15.9184 16.8157C16.1195 16.8157 16.3123 16.8972 16.4544 17.0421C16.5966 17.1871 16.6765 17.3837 16.6765 17.5887V20.4412H16.6795C17.5452 19.7733 18.6049 18.9601 19.5206 17.9057C20.6046 16.6642 21.4203 15.1614 21.4203 13.3139Z" fill="black"/>
</svg>
