<svg width="24" height="24" viewBox="0 0 24 24" fill="none" xmlns="http://www.w3.org/2000/svg">
<path d="M21.8333 15.75H3.16667C2.525 15.75 2 16.3125 2 17C2 17.6875 2.525 18.25 3.16667 18.25H21.8333C22.475 18.25 23 17.6875 23 17C23 16.3125 22.475 15.75 21.8333 15.75ZM21.8333 9.5H3.16667C2.525 9.5 2 10.0625 2 10.75V12C2 12.6875 2.525 13.25 3.16667 13.25H21.8333C22.475 13.25 23 12.6875 23 12V10.75C23 10.0625 22.475 9.5 21.8333 9.5ZM21.8333 2H3.16667C2.525 2 2 2.5625 2 3.25V5.75C2 6.4375 2.525 7 3.16667 7H21.8333C22.475 7 23 6.4375 23 5.75V3.25C23 2.5625 22.475 2 21.8333 2ZM22.4167 20.75H2.58333C2.25667 20.75 2 21.025 2 21.375C2 21.725 2.25667 22 2.58333 22H22.4167C22.7433 22 23 21.725 23 21.375C23 21.025 22.7433 20.75 22.4167 20.75Z" fill="black"/>
</svg>
